HIERARCHY
ROOT Hips
{
  OFFSET 5.84602e-005 68.8428 3.50346
  CHANNELS 6 Xposition Yposition Zposition Zrotation Xrotation Yrotation
  JOINT Spine
  {
    OFFSET 0 8.597 -4.6522
    CHANNELS 3 Zrotation Xrotation Yrotation
    JOINT Spine1
    {
      OFFSET 0 7.8454 0.4098
      CHANNELS 3 Zrotation Xrotation Yrotation
      JOINT Spine2
      {
        OFFSET 0 9.7078 -2.1609
        CHANNELS 3 Zrotation Xrotation Yrotation
        JOINT Neck
        {
          OFFSET 0 21.8761 -0.4549
          CHANNELS 3 Zrotation Xrotation Yrotation
          JOINT Head
          {
            OFFSET 0 12.3537 3.3602
            CHANNELS 3 Zrotation Xrotation Yrotation
            End Site
            {
              OFFSET 0.0001 18.9506 0.5657
            }
          }
        }
        JOINT LeftShoulder
        {
          OFFSET 2.2086 21.1115 7.2329
          CHANNELS 3 Zrotation Xrotation Yrotation
          JOINT LeftArm
          {
            OFFSET 13.1193 3.0282 -4.8998
            CHANNELS 3 Zrotation Xrotation Yrotation
            JOINT LeftForeArm
            {
              OFFSET 27.4081 -0.0973053 -0.2375
              CHANNELS 3 Zrotation Xrotation Yrotation
              JOINT LeftHand
              {
                OFFSET 22.8641 0.0662994 -0.1369
                CHANNELS 3 Zrotation Xrotation Yrotation
                JOINT LeftHandIndex1
                {
                  OFFSET 8.8614 0.775009 2.4612
                  CHANNELS 3 Zrotation Xrotation Yrotation
                  JOINT LeftHandIndex2
                  {
                    OFFSET 3.3146 -0.808304 0.5841
                    CHANNELS 3 Zrotation Xrotation Yrotation
                    JOINT LeftHandIndex3
                    {
                      OFFSET 2.2628 -0.552002 0.3989
                      CHANNELS 3 Zrotation Xrotation Yrotation
                      End Site
                      {
                        OFFSET 1.6102 -0.4807 0.2612
                      }
                    }
                  }
                }
                JOINT LeftHandMiddle1
                {
                  OFFSET 8.9937 0.895004 0.2143
                  CHANNELS 3 Zrotation Xrotation Yrotation
                  JOINT LeftHandMiddle2
                  {
                    OFFSET 4.0984 0.0113983 -0.0242
                    CHANNELS 3 Zrotation Xrotation Yrotation
                    JOINT LeftHandMiddle3
                    {
                      OFFSET 2.2716 0.00689697 -0.0138001
                      CHANNELS 3 Zrotation Xrotation Yrotation
                      End Site
                      {
                        OFFSET 2.0404 -0.1441 0.0027
                      }
                    }
                  }
                }
                JOINT LeftHandRing1
                {
                  OFFSET 8.5234 0.597198 -2.0164
                  CHANNELS 3 Zrotation Xrotation Yrotation
                  JOINT LeftHandRing2
                  {
                    OFFSET 3.7188 -0.188293 -0.2328
                    CHANNELS 3 Zrotation Xrotation Yrotation
                    JOINT LeftHandRing3
                    {
                      OFFSET 2.1191 -0.106598 -0.1332
                      CHANNELS 3 Zrotation Xrotation Yrotation
                      End Site
                      {
                        OFFSET 1.8737 -0.2304 -0.0886
                      }
                    }
                  }
                }
                JOINT LeftHandPinky1
                {
                  OFFSET 7.9094 -0.601089 -3.4825
                  CHANNELS 3 Zrotation Xrotation Yrotation
                  JOINT LeftHandPinky2
                  {
                    OFFSET 2.2874 -0.477005 -0.6314
                    CHANNELS 3 Zrotation Xrotation Yrotation
                    JOINT LeftHandPinky3
                    {
                      OFFSET 1.6774 -0.349396 -0.4633
                      CHANNELS 3 Zrotation Xrotation Yrotation
                      End Site
                      {
                        OFFSET 1.4888 -0.4091 -0.3416
                      }
                    }
                  }
                }
                JOINT LeftHandThumb1
                {
                  OFFSET 1.833 -1.3875 1.3896
                  CHANNELS 3 Zrotation Xrotation Yrotation
                  JOINT LeftHandThumb2
                  {
                    OFFSET 3.4129 -1.121 2.5732
                    CHANNELS 3 Zrotation Xrotation Yrotation
                    JOINT LeftHandThumb3
                    {
                      OFFSET 2.2474 -0.804199 1.6192
                      CHANNELS 3 Zrotation Xrotation Yrotation
                      End Site
                      {
                        OFFSET 1.6527 -0.5689 1.1317
                      }
                    }
                  }
                }
              }
            }
          }
        }
        JOINT RightShoulder
        {
          OFFSET -2.2086 21.1115 7.2329
          CHANNELS 3 Zrotation Xrotation Yrotation
          JOINT RightArm
          {
            OFFSET -13.1216 3.0287 -4.9007
            CHANNELS 3 Zrotation Xrotation Yrotation
            JOINT RightForeArm
            {
              OFFSET -27.4081 -0.0973053 -0.2375
              CHANNELS 3 Zrotation Xrotation Yrotation
              JOINT RightHand
              {
                OFFSET -22.8641 0.0664063 -0.1369
                CHANNELS 3 Zrotation Xrotation Yrotation
                JOINT RightHandIndex1
                {
                  OFFSET -8.8614 0.774994 2.4612
                  CHANNELS 3 Zrotation Xrotation Yrotation
                  JOINT RightHandIndex2
                  {
                    OFFSET -3.3146 -0.808304 0.5841
                    CHANNELS 3 Zrotation Xrotation Yrotation
                    JOINT RightHandIndex3
                    {
                      OFFSET -2.2628 -0.552002 0.3989
                      CHANNELS 3 Zrotation Xrotation Yrotation
                      End Site
                      {
                        OFFSET -1.6102 -0.4807 0.2612
                      }
                    }
                  }
                }
                JOINT RightHandMiddle1
                {
                  OFFSET -8.9937 0.894989 0.2143
                  CHANNELS 3 Zrotation Xrotation Yrotation
                  JOINT RightHandMiddle2
                  {
                    OFFSET -4.0984 0.0113983 -0.0242
                    CHANNELS 3 Zrotation Xrotation Yrotation
                    JOINT RightHandMiddle3
                    {
                      OFFSET -2.2716 0.00691223 -0.0138001
                      CHANNELS 3 Zrotation Xrotation Yrotation
                      End Site
                      {
                        OFFSET -2.0404 -0.1441 0.0027
                      }
                    }
                  }
                }
                JOINT RightHandRing1
                {
                  OFFSET -8.5234 0.597198 -2.0164
                  CHANNELS 3 Zrotation Xrotation Yrotation
                  JOINT RightHandRing2
                  {
                    OFFSET -3.7188 -0.188309 -0.2328
                    CHANNELS 3 Zrotation Xrotation Yrotation
                    JOINT RightHandRing3
                    {
                      OFFSET -2.1191 -0.106598 -0.1332
                      CHANNELS 3 Zrotation Xrotation Yrotation
                      End Site
                      {
                        OFFSET -1.8737 -0.2304 -0.0886
                      }
                    }
                  }
                }
                JOINT RightHandPinky1
                {
                  OFFSET -7.9094 -0.601105 -3.4825
                  CHANNELS 3 Zrotation Xrotation Yrotation
                  JOINT RightHandPinky2
                  {
                    OFFSET -2.2874 -0.477005 -0.6314
                    CHANNELS 3 Zrotation Xrotation Yrotation
                    JOINT RightHandPinky3
                    {
                      OFFSET -1.6774 -0.349396 -0.4633
                      CHANNELS 3 Zrotation Xrotation Yrotation
                      End Site
                      {
                        OFFSET -1.4888 -0.4091 -0.3416
                      }
                    }
                  }
                }
                JOINT RightHandThumb1
                {
                  OFFSET -1.833 -1.38751 1.3896
                  CHANNELS 3 Zrotation Xrotation Yrotation
                  JOINT RightHandThumb2
                  {
                    OFFSET -3.41299 -1.12099 2.5732
                    CHANNELS 3 Zrotation Xrotation Yrotation
                    JOINT RightHandThumb3
                    {
                      OFFSET -2.24741 -0.804108 1.6192
                      CHANNELS 3 Zrotation Xrotation Yrotation
                      End Site
                      {
                        OFFSET -1.6527 -0.5689 1.1317
                      }
                    }
                  }
                }
              }
            }
          }
        }
      }
    }
  }
  JOINT RightUpLeg
  {
    OFFSET -9.1966 3.8861 -0.7581
    CHANNELS 3 Zrotation Xrotation Yrotation
    JOINT RightLeg
    {
      OFFSET -0.7359 -41.0265 0
      CHANNELS 3 Zrotation Xrotation Yrotation
      JOINT RightFoot
      {
        OFFSET 0 -40.2855 0
        CHANNELS 3 Zrotation Xrotation Yrotation
        JOINT RightToeBase
        {
          OFFSET 0 -5.6122 11.7359
          CHANNELS 3 Zrotation Xrotation Yrotation
          End Site
          {
            OFFSET 0 0 7.8731
          }
        }
      }
    }
  }
  JOINT LeftUpLeg
  {
    OFFSET 9.1965 3.8864 -0.7581
    CHANNELS 3 Zrotation Xrotation Yrotation
    JOINT LeftLeg
    {
      OFFSET 0.7359 -41.0268 0
      CHANNELS 3 Zrotation Xrotation Yrotation
      JOINT LeftFoot
      {
        OFFSET 0 -40.2855 0
        CHANNELS 3 Zrotation Xrotation Yrotation
        JOINT LeftToeBase
        {
          OFFSET 0 -5.6122 11.7359
          CHANNELS 3 Zrotation Xrotation Yrotation
          End Site
          {
            OFFSET 0 0 7.8731
          }
        }
      }
    }
  }
}
MOTION
Frames:	4
Frame Time:	0.0333333
5.84602e-005 68.8428 3.50346 0 0 -0 0 0 -0 0 0 -0 0 0 -0 0 0 -0 0 0 -0 0 0 -0 0 0 -0 0 0 -0 0 0 -0 0 0 -0 0 0 -0 0 0 -0 0 0 -0 -0.0146107 -8.87603e-005 -2.63497e-007 2.99804e-018 -2.42657e-020 -1.42182e-022 0 0 -0 -0.0187562 -0.001176 5.858e-005 5.06224e-018 3.88251e-019 1.21329e-020 0 0 -0 -0.012269 -0.00324817 0.000675346 -1.74678e-018 3.88251e-019 -0 0 0 -0 0 0 -0 0 0 -0 0 0 -0 0 0 -0 0 0 -0 0 0 -0 0 0 -0 0 0 -0 0 0 -0 0 0 -0 0.0149955 -9.10982e-005 2.64101e-007 -9.69331e-018 1.21329e-020 -4.7394e-023 0 0 -0 0.0189956 -0.00119102 -5.96516e-005 -5.41541e-019 0 2.42657e-020 0 0 -0 0.0122698 -0.00324857 -0.000673756 -2.00796e-019 0 -1.94126e-019 0 0 -0 0 0 -0 0 0 -0 3.39842 1.33031 -0.0637918 -5.65207e-008 0.834868 -0.000436188 -3.39935 -2.16518 -0.0642563 -8.89002e-024 -1.18485e-023 -1.48106e-024 -3.39844 1.35642 0.0640283 -3.18788e-007 0.782166 -0.000588827 3.39931 -2.13858 0.0634662 1.1399e-023 0 -0 
7.35852 46.4826 5.89859 -0 -27.4083 -0 0.0614556 5.25908 0.0369538 0.120253 10.5182 0.0686516 0.120253 10.5182 0.0686516 7.08794e-006 4.07447 -2.17501e-006 -3.09324e-008 7.03612 -7.68583e-008 3.39391e-007 2.98807e-005 2.77165e-007 -6.72745 -19.1266 -31.9539 1.71614 7.20708 -13.4421 -8.51945 -1.85159e-006 1.06257e-005 1.9674e-007 7.99416e-008 -2.06029e-008 -7.95139e-016 1.59028e-015 9.54166e-015 1.9674e-007 7.99416e-008 -2.06028e-008 1.9674e-007 7.99416e-008 -2.06029e-008 -0.0146915 -8.88262e-005 1.97277e-006 1.96739e-007 7.99442e-008 -2.05927e-008 1.9674e-007 7.99416e-008 -2.06029e-008 -0.0188369 -0.00118172 5.97991e-005 1.96738e-007 7.99448e-008 -2.05917e-008 1.9674e-007 7.99416e-008 -2.06029e-008 -0.0122118 -0.00323335 0.000670198 1.96739e-007 7.99425e-008 -2.05999e-008 1.9674e-007 7.99416e-008 -2.06029e-008 -7.95139e-016 1.59028e-015 9.54166e-015 1.9674e-007 7.99416e-008 -2.06028e-008 3.10847e-007 -3.70449 2.20969e-007 0.51532 3.92678 27.8479 -0.418251 -8.37992 11.9301 5.14813 -2.57149 7.41437 -1.32417e-031 -7.95139e-016 -9.54166e-015 -7.95139e-016 -7.95139e-016 -9.54166e-015 -7.95139e-016 0 -6.36111e-015 -1.32417e-031 -7.95139e-016 -9.54166e-015 0.0150617 -9.15076e-005 1.19947e-006 7.31596e-007 2.86978e-007 2.35144e-006 -1.32417e-031 -7.95139e-016 -9.54166e-015 0.0190165 -0.00119119 -6.29123e-005 7.32101e-007 2.86925e-007 2.35142e-006 -1.32417e-031 -7.95139e-016 -9.54166e-015 0.0122324 -0.00323772 -0.000677448 7.31314e-007 2.86541e-007 2.35134e-006 -1.32417e-031 -7.95139e-016 -9.54166e-015 -7.95139e-016 -7.95139e-016 -9.54166e-015 -7.95139e-016 0 -6.36111e-015 -9.29508 -25.0053 -25.1084 0.054121 41.6796 -1.63509 -3.52174 6.77841 0.20863 -1.53711e-007 3.00875e-007 -1.70048e-006 9.32221 -24.9561 25.0632 -0.0519832 40.3876 1.54099 5.28314 4.31004 -0.719705 1.98974e-007 1.75025e-006 -1.59096e-006 
14.7131 24.8916 7.05425 -0 -54.8165 -0 0.0987278 10.5179 0.100198 0.183131 21.0361 0.186438 0.183131 21.036 0.186439 3.73952e-007 8.14783 5.58705e-008 -2.66266e-008 14.0722 4.8713e-008 -4.67738e-008 1.06732e-006 -1.00386e-009 -30.7168 -20.4993 -67.6079 6.76741 13.2093 -27.4527 -17.0389 4.61463e-006 5.42994e-007 -2.45277e-006 5.80431e-007 4.84629e-007 -3.0446e-007 -2.93088e-007 5.53102e-008 -2.08573e-006 3.38577e-007 2.61958e-007 -2.45277e-006 5.80431e-007 4.84629e-007 -0.0145883 -9.0309e-005 -8.70642e-007 -2.08575e-006 3.38543e-007 2.62003e-007 -2.45277e-006 5.80431e-007 4.84629e-007 -0.0187447 -0.00117802 6.59914e-005 -2.08576e-006 3.38533e-007 2.62035e-007 -2.45277e-006 5.80431e-007 4.84629e-007 -0.0122702 -0.00324935 0.000676377 -2.08574e-006 3.38557e-007 2.62055e-007 -2.45277e-006 5.80431e-007 4.84629e-007 -3.0446e-007 -2.93088e-007 5.53102e-008 -2.08573e-006 3.38577e-007 2.61958e-007 -2.2087e-008 -7.40903 -1.22854e-008 -2.16563 5.00819 55.8751 2.66858 -15.6534 24.5696 10.9566 -5.01346 14.872 -5.55811e-007 6.32206e-007 1.10722e-007 -5.55811e-007 6.32206e-007 1.10722e-007 -5.55811e-007 6.32206e-007 1.10722e-007 -5.55811e-007 6.32206e-007 1.10722e-007 0.0150327 -8.91938e-005 -9.27533e-007 -5.55799e-007 6.3222e-007 1.1064e-007 -5.55811e-007 6.32206e-007 1.10722e-007 0.0189159 -0.00118589 -5.20939e-005 -5.55795e-007 6.32223e-007 1.10624e-007 -5.55811e-007 6.32206e-007 1.10722e-007 0.0122774 -0.00324872 -0.000671077 -5.55802e-007 6.32212e-007 1.1067e-007 -5.55811e-007 6.32206e-007 1.10722e-007 -5.55811e-007 6.32206e-007 1.10722e-007 -5.55811e-007 6.32206e-007 1.10722e-007 -44.2872 -36.0206 -60.8013 0.0105723 81.0545 -2.16397 -3.16245 16.1301 -0.987499 7.72014e-007 -6.09976e-007 3.60289e-006 44.2223 -35.9003 60.5827 -0.010645 78.4637 2.02304 6.96204 11.232 -0.158527 -1.05027e-006 1.52653e-006 1.4611e-006 
19.8573 9.9592 6.97059 -0 -74.0023 -0 0.104036 14.199 0.161443 0.173674 28.3981 0.310354 0.173674 28.3981 0.310354 -3.5379e-006 10.9999 1.18076e-006 3.33879e-008 18.9975 -1.6782e-007 -2.00983e-008 2.34733e-006 1.08374e-007 -46.6942 -7.78491 -85.4774 12.0731 16.064 -37.7121 -23.0025 1.23832e-006 2.42291e-006 5.96354e-016 2.54444e-014 -0 -1.98785e-015 2.76808e-014 -0 -1.44119e-015 3.05383e-014 -3.18055e-015 5.96354e-016 2.54444e-014 -0 -0.0146122 -8.69097e-005 6.59611e-006 -1.2921e-015 -7.65321e-015 -9.54166e-015 5.96354e-016 2.54444e-014 -0 -0.0187347 -0.00117523 6.47916e-005 1.73937e-015 -3.97569e-016 -3.18055e-015 5.96354e-016 2.54444e-014 -0 -0.012289 -0.00325069 0.000671397 -1.63997e-015 -2.88238e-015 -6.36111e-015 5.96354e-016 2.54444e-014 -0 -1.98785e-015 2.76808e-014 -0 -1.44119e-015 3.05383e-014 -3.18055e-015 1.30051e-008 -10.0022 2.84045e-007 -4.60261 3.08157 75.3102 6.80861 -19.4791 34.0509 15.4018 -6.57738 20.1368 -5.2001e-007 8.83964e-007 -2.24005e-007 -4.14976e-007 -5.72235e-007 7.30764e-007 -5.2001e-007 8.83964e-007 -2.24005e-007 -5.2001e-007 8.83964e-007 -2.24005e-007 0.0150138 -9.15375e-005 -1.17064e-006 -5.21008e-007 8.8394e-007 -2.2412e-007 -5.2001e-007 8.83964e-007 -2.24005e-007 0.0190074 -0.00118935 -5.92122e-005 -5.21275e-007 8.84005e-007 -2.24142e-007 -5.2001e-007 8.83964e-007 -2.24005e-007 0.0122993 -0.00325524 -0.00067723 -1.64862e-007 6.54408e-007 3.96428e-007 -5.2001e-007 8.83964e-007 -2.24005e-007 -4.14976e-007 -5.72235e-007 7.30764e-007 -5.2001e-007 8.83964e-007 -2.24005e-007 -72.715 -29.4193 -84.1534 -179.968 70.925 176.704 -2.58079 22.4276 -1.69565 -6.78933e-006 -1.00748e-006 -3.27239e-006 72.4767 -29.294 83.6433 179.984 74.3917 -176.958 7.95516 15.7616 0.0490608 -4.80978e-007 -1.45521e-006 -6.87983e-007 
